<svg xmlns="http://www.w3.org/2000/svg"   version="1.1">
        <path id="path55254" style="font-style:normal;font-weight:700;font-size:72px;line-height:1;font-family:'Comfortaa Bold Alt2';font-variant-ligatures:none;text-align:center;text-anchor:middle" d="m 230.57675,-1.08 c 0.72,-0.72 1.08,-1.584 1.08,-2.664 v -15.768 h 10.656 c 3.528,0 6.696,-0.72 9.504,-2.304 2.808,-1.512 4.968,-3.672 6.552,-6.408 1.584,-2.736 2.376,-5.832 2.376,-9.36 0,-3.6 -0.792,-6.768 -2.376,-9.648 -1.584,-2.808 -3.744,-5.04 -6.552,-6.624 -2.808,-1.584 -5.976,-2.376 -9.504,-2.376 h -14.4 c -1.08,0 -1.944,0.36 -2.664,1.08 -0.72,0.72 -1.08,1.584 -1.08,2.664 v 48.744 c 0,1.08 0.36,1.944 1.08,2.664 0.72,0.72 1.584,1.08 2.664,1.08 1.08,0 1.944,-0.36 2.664,-1.08 z m 19.8,-28.44 c -2.16,2.088 -4.824,3.096 -8.064,3.096 h -10.656 V -49.32 h 10.656 c 3.24,0 5.904,1.152 8.064,3.312 2.088,2.232 3.168,5.04 3.168,8.424 0,3.312 -1.08,5.976 -3.168,8.064 z" stroke-width="0" stroke-linejoin="miter" stroke-miterlimit="2" fill="#469ae0" stroke="#469ae0" transform="translate(0 292.51) translate(249.99593749999997 64.05799999999999) scale(0.75) translate(-224.16875 56.232)"></path>
        <path id="path55256" style="font-style:normal;font-weight:700;font-size:72px;line-height:1;font-family:'Comfortaa Bold Alt2';font-variant-ligatures:none;text-align:center;text-anchor:middle" d="m 290.26812,-40.464 c -6.048,0 -11.16,2.16 -15.48,6.408 -4.248,4.248 -6.33599,9.36 -6.33599,15.408 v 15.192 c 0,1.008 0.28799,1.8 1.00799,2.448 0.648,0.72 1.44,1.008 2.448,1.008 0.93601,0 1.728,-0.288 2.37601,-1.008 0.71999,-0.648 1.07999,-1.44 1.07999,-2.448 v -15.192 c 0,-4.104 1.44,-7.632 4.32,-10.512 2.952,-2.952 6.48001,-4.392 10.584,-4.392 0.936,0 1.728,-0.36 2.448,-1.008 0.648,-0.72 1.00801,-1.512 1.00801,-2.448 0,-0.936 -0.36001,-1.8 -1.00801,-2.448 -0.72,-0.648 -1.512,-1.008 -2.448,-1.008 z" stroke-width="0" stroke-linejoin="miter" stroke-miterlimit="2" fill="#4495da" stroke="#4495da" transform="translate(0 292.51) translate(290.70847249999997 75.884) scale(0.75) translate(-268.45213 40.464)"></path>
        <path id="path55258" style="font-style:normal;font-weight:700;font-size:72px;line-height:1;font-family:'Comfortaa Bold Alt2';font-variant-ligatures:none;text-align:center;text-anchor:middle" d="m 318.29525,0.288 c 5.544,0 10.224,-1.944 14.112,-5.832 3.888,-3.888 5.904,-8.568 5.904,-14.112 0,-5.544 -2.016,-10.224 -5.904,-14.112 -3.888,-3.888 -8.568,-5.904 -14.112,-5.904 -5.544,0 -10.224,2.016 -14.112,5.904 -3.888,3.888 -5.832,8.568 -5.832,14.112 0,5.544 1.944,10.224 5.832,14.112 3.888,3.888 8.568,5.832 14.112,5.832 z m 0,-33.048 c 3.6,0 6.696,1.296 9.288,3.816 2.52,2.592 3.816,5.688 3.816,9.288 0,3.6 -1.296,6.696 -3.816,9.216 -2.592,2.592 -5.688,3.816 -9.288,3.816 -3.6,0 -6.696,-1.224 -9.216,-3.816 -2.592,-2.52 -3.816,-5.616 -3.816,-9.216 0,-3.6 1.224,-6.696 3.816,-9.288 2.52,-2.52 5.616,-3.816 9.216,-3.816 z" stroke-width="0" stroke-linejoin="miter" stroke-miterlimit="2" fill="#428fd3" stroke="#428fd3" transform="translate(0 292.51) translate(320.6328125 76.47800000000001) scale(0.75) translate(-298.35125 39.672)"></path>
        <path id="path55260" style="font-style:normal;font-weight:700;font-size:72px;line-height:1;font-family:'Comfortaa Bold Alt2';font-variant-ligatures:none;text-align:center;text-anchor:middle" d="m 352.6955,-5.544 c 3.888,3.96 8.568,5.904 14.112,5.904 5.544,0 10.224,-1.944 14.112,-5.904 3.888,-3.888 5.904,-8.568 5.904,-14.112 v -33.12 c 0,-0.936 -0.36,-1.728 -1.08,-2.448 -0.648,-0.648 -1.44,-1.008 -2.376,-1.008 -1.008,0 -1.8,0.36 -2.448,1.008 -0.72,0.72 -1.008,1.512 -1.008,2.448 v 18 c -3.744,-3.24 -8.136,-4.824 -13.104,-4.824 -5.544,0 -10.224,1.944 -14.112,5.832 -3.888,3.888 -5.832,8.64 -5.832,14.112 0,5.544 1.944,10.224 5.832,14.112 z m 14.112,-27.144 c 3.6,0 6.696,1.296 9.216,3.816 2.592,2.52 3.888,5.616 3.888,9.216 0,3.6 -1.296,6.696 -3.888,9.288 -2.52,2.52 -5.616,3.816 -9.216,3.816 -3.6,0 -6.696,-1.296 -9.216,-3.816 -2.592,-2.592 -3.816,-5.688 -3.816,-9.288 0,-3.6 1.224,-6.696 3.816,-9.216 2.52,-2.52 5.616,-3.816 9.216,-3.816 z" stroke-width="0" stroke-linejoin="miter" stroke-miterlimit="2" fill="#3f8acd" stroke="#3f8acd" transform="translate(0 292.51) translate(364.51700000000005 64.05799999999999) scale(0.75) translate(-346.8635 56.232)"></path>
        <path id="path55262" style="font-style:normal;font-weight:700;font-size:72px;line-height:1;font-family:'Comfortaa Bold Alt2';font-variant-ligatures:none;text-align:center;text-anchor:middle" d="m 432.2645,-39.528 c -1.008,0 -1.872,0.36 -2.592,1.08 -0.72,0.72 -1.008,1.512 -1.008,2.52 V -18 c 0,3.096 -1.152,5.76 -3.312,7.92 -2.232,2.232 -4.824,3.312 -7.92,3.312 -3.096,0 -5.688,-1.08 -7.92,-3.312 -2.16,-2.16 -3.24,-4.824 -3.24,-7.92 v -17.928 c 0,-1.008 -0.36,-1.8 -1.08,-2.52 -0.72,-0.72 -1.512,-1.08 -2.52,-1.08 -1.008,0 -1.872,0.36 -2.592,1.08 -0.72,0.72 -1.008,1.512 -1.008,2.52 V -18 c 0,5.112 1.728,9.432 5.328,13.032 3.6,3.6 7.92,5.4 13.032,5.4 5.04,0 9.432,-1.8 13.032,-5.4 3.6,-3.6 5.4,-7.92 5.4,-13.032 v -17.928 c 0,-1.008 -0.36,-1.8 -1.08,-2.52 -0.72,-0.72 -1.512,-1.08 -2.52,-1.08 z" stroke-width="0" stroke-linejoin="miter" stroke-miterlimit="2" fill="#3d84c7" stroke="#3d84c7" transform="translate(0 292.51) translate(411.1737500000001 76.586) scale(0.75) translate(-399.0725 39.528)"></path>
        <path id="path55264" style="font-style:normal;font-weight:700;font-size:72px;line-height:1;font-family:'Comfortaa Bold Alt2';font-variant-ligatures:none;text-align:center;text-anchor:middle" d="m 480.47863,-33.192 c -3.74401,-4.32 -8.49601,-6.48 -14.11201,-6.48 -3.74399,0 -7.12799,0.864 -10.07999,2.592 -3.024,1.728 -5.32801,4.104 -6.98401,7.128 -1.656,3.024 -2.448,6.48 -2.448,10.296 0,3.744 0.792,7.2 2.52,10.224 1.728,3.024 4.10401,5.4 7.12801,7.128 3.024,1.728 6.40799,2.592 10.224,2.592 5.18399,0 9.504,-1.584 12.95999,-4.824 0.57601,-0.576 0.86401,-1.224 0.86401,-1.944 0,-0.936 -0.50401,-1.8 -1.368,-2.592 -0.57601,-0.432 -1.22401,-0.648 -1.872,-0.648 -0.86401,0 -1.80001,0.36 -2.66401,1.008 -2.016,1.728 -4.67999,2.52 -7.91999,2.52 -2.52001,0 -4.75201,-0.576 -6.69601,-1.728 -1.94399,-1.152 -3.45599,-2.736 -4.536,-4.752 -1.08,-2.016 -1.584,-4.392 -1.584,-6.984 0,-4.032 1.15201,-7.344 3.456,-9.792 2.304,-2.448 5.25601,-3.744 9,-3.744 1.8,0 3.38401,0.36 4.824,0.936 1.44,0.576 2.736,1.512 3.96,2.808 0.72001,0.864 1.656,1.296 2.808,1.296 0.576,0 1.15201,-0.144 1.656,-0.504 1.008,-0.72 1.584,-1.584 1.584,-2.664 0,-0.72 -0.288,-1.296 -0.71999,-1.872 z" stroke-width="0" stroke-linejoin="miter" stroke-miterlimit="2" fill="#3b7fc0" stroke="#3b7fc0" transform="translate(0 292.51) translate(454.5103400000001 76.47800000000001) scale(0.75) translate(-446.85462 39.672)"></path>
        <path id="path55266" style="font-style:normal;font-weight:700;font-size:72px;line-height:1;font-family:'Comfortaa Bold Alt2';font-variant-ligatures:none;text-align:center;text-anchor:middle" d="m 508.59913,-7.2 c -2.08801,0 -3.88801,-0.72 -5.32801,-2.232 -1.512,-1.44 -2.23199,-3.24 -2.23199,-5.328 v -16.92 h 6.408 c 0.86399,0 1.65599,-0.288 2.30399,-0.936 0.57601,-0.576 0.936,-1.368 0.936,-2.304 0,-0.864 -0.35999,-1.656 -0.936,-2.304 -0.648,-0.576 -1.44,-0.936 -2.30399,-0.936 h -6.408 v -10.152 c 0,-1.008 -0.36001,-1.8 -1.08001,-2.52 -0.72,-0.72 -1.51199,-1.08 -2.52,-1.08 -1.008,0 -1.872,0.36 -2.592,1.08 -0.72,0.72 -1.00799,1.512 -1.00799,2.52 v 33.552 c 0,4.104 1.44,7.56 4.32,10.44 2.88,2.88 6.336,4.32 10.44,4.32 1.00799,0 1.8,-0.288 2.51999,-1.008 0.72001,-0.72 1.08,-1.584 1.08,-2.592 0,-1.008 -0.35999,-1.8 -1.08,-2.52 -0.71999,-0.72 -1.512,-1.08 -2.51999,-1.08 z" stroke-width="0" stroke-linejoin="miter" stroke-miterlimit="2" fill="#397aba" stroke="#397aba" transform="translate(0 292.51) translate(497.2487225000001 67.298) scale(0.75) translate(-493.83913 51.912)"></path>
        <path id="path55268" style="font-style:normal;font-weight:700;font-size:72px;line-height:1;font-family:'Comfortaa Bold Alt2';font-variant-ligatures:none;text-align:center;text-anchor:middle" d="m 522.73925,-38.376 c -0.72,0.72 -1.008,1.584 -1.008,2.664 v 32.04 c 0,1.08 0.288,1.944 1.008,2.664 0.72,0.72 1.584,1.008 2.664,1.008 1.08,0 1.944,-0.288 2.664,-1.008 0.648,-0.72 1.008,-1.584 1.008,-2.664 v -32.04 c 0,-1.08 -0.36,-1.944 -1.008,-2.664 -0.72,-0.648 -1.584,-1.008 -2.664,-1.008 -1.08,0 -1.944,0.36 -2.664,1.008 z m 5.976,-15.48 c -0.936,-0.936 -2.016,-1.44 -3.312,-1.44 -1.296,0 -2.448,0.504 -3.384,1.44 -0.936,0.936 -1.368,2.016 -1.368,3.312 0,1.296 0.432,2.448 1.368,3.384 0.936,0.936 2.088,1.368 3.384,1.368 1.296,0 2.376,-0.432 3.312,-1.368 0.936,-0.936 1.44,-2.088 1.44,-3.384 0,-1.296 -0.504,-2.376 -1.44,-3.312 z" stroke-width="0" stroke-linejoin="miter" stroke-miterlimit="2" fill="#3674b4" stroke="#3674b4" transform="translate(0 292.51) translate(524.8578125000001 64.75999999999999) scale(0.75) translate(-520.65125 55.296)"></path>
        <path id="path55270" style="font-style:normal;font-weight:700;font-size:72px;line-height:1;font-family:'Comfortaa Bold Alt2';font-variant-ligatures:none;text-align:center;text-anchor:middle" d="m 560.59212,0.288 c 5.544,0 10.22401,-1.944 14.112,-5.832 3.888,-3.888 5.904,-8.568 5.904,-14.112 0,-5.544 -2.016,-10.224 -5.904,-14.112 -3.88799,-3.888 -8.568,-5.904 -14.112,-5.904 -5.54399,0 -10.224,2.016 -14.11199,5.904 -3.88801,3.888 -5.832,8.568 -5.832,14.112 0,5.544 1.94399,10.224 5.832,14.112 3.88799,3.888 8.568,5.832 14.11199,5.832 z m 0,-33.048 c 3.60001,0 6.69601,1.296 9.28801,3.816 2.51999,2.592 3.816,5.688 3.816,9.288 0,3.6 -1.29601,6.696 -3.816,9.216 -2.592,2.592 -5.688,3.816 -9.28801,3.816 -3.6,0 -6.696,-1.224 -9.216,-3.816 -2.59199,-2.52 -3.816,-5.616 -3.816,-9.216 0,-3.6 1.22401,-6.696 3.816,-9.288 2.52,-2.52 5.616,-3.816 9.216,-3.816 z" stroke-width="0" stroke-linejoin="miter" stroke-miterlimit="2" fill="#346fad" stroke="#346fad" transform="translate(0 292.51) translate(547.3554725000001 76.47800000000001) scale(0.75) translate(-540.64813 39.672)"></path>
        <path id="path55272" style="font-style:normal;font-weight:700;font-size:72px;line-height:1;font-family:'Comfortaa Bold Alt2';font-variant-ligatures:none;text-align:center;text-anchor:middle" d="m 624.65638,0.216 c 1.008,0 1.87199,-0.36 2.59199,-1.08 0.72001,-0.72 1.00801,-1.584 1.00801,-2.592 V -21.96 c 0,-5.04 -1.80001,-9.36 -5.32801,-12.96 -3.59999,-3.6 -7.992,-5.4 -13.03199,-5.4 -5.11201,0 -9.432,1.8 -13.03201,5.4 -3.6,3.6 -5.39999,7.92 -5.39999,12.96 v 18.504 c 0,1.008 0.36,1.872 1.07999,2.592 0.72,0.72 1.584,1.008 2.52001,1.008 1.00799,0 1.87199,-0.288 2.592,-1.008 0.72,-0.72 1.00799,-1.584 1.00799,-2.592 V -21.96 c 0,-3.024 1.152,-5.688 3.312,-7.848 2.16001,-2.232 4.82401,-3.312 7.92001,-3.312 3.096,0 5.688,1.08 7.91999,3.312 2.16,2.16 3.24,4.824 3.24,7.848 v 18.576 c 0,0.936 0.36001,1.8 1.08001,2.52 0.71999,0.72 1.58399,1.08 2.52,1.08 z" stroke-width="0" stroke-linejoin="miter" stroke-miterlimit="2" fill="#3269a7" stroke="#3269a7" transform="translate(0 292.51) translate(592.9676600000001 75.99199999999999) scale(0.75) translate(-591.46438 40.32)"></path>
        <path id="path55274" style="font-style:normal;font-weight:700;font-size:72px;line-height:1;font-family:'Comfortaa Bold Alt2';font-variant-ligatures:none;text-align:center;text-anchor:middle" d="m 704.40425,-5.256 -20.304,-48.456 c -0.648,-1.656 -1.8,-2.52 -3.528,-2.52 -1.656,0 -2.808,0.864 -3.528,2.52 l -20.232,48.312 c -0.288,0.648 -0.36,1.224 -0.36,1.656 0,1.08 0.288,1.944 1.008,2.664 0.72,0.72 1.584,1.08 2.664,1.08 0.72,0 1.368,-0.144 2.016,-0.576 0.576,-0.432 1.08,-0.936 1.44,-1.728 l 17.136,-41.904 16.848,41.904 c 0.216,0.72 0.72,1.296 1.368,1.728 0.648,0.432 1.296,0.576 2.088,0.576 1.008,0 1.944,-0.36 2.664,-1.08 0.72,-0.72 1.08,-1.584 1.08,-2.592 0,-0.432 -0.144,-0.936 -0.36,-1.584 z" stroke-width="0" stroke-linejoin="miter" stroke-miterlimit="2" fill="#3064a1" stroke="#3064a1" transform="translate(0 292.51) translate(649.2085625000002 64.05799999999999) scale(0.75) translate(-656.45225 56.232)"></path>
        <path id="path55276" style="font-style:normal;font-weight:700;font-size:72px;line-height:1;font-family:'Comfortaa Bold Alt2';font-variant-ligatures:none;text-align:center;text-anchor:middle" d="m 746.31725,-33.768 c -3.888,-3.888 -8.568,-5.832 -14.112,-5.832 -5.544,0 -10.224,1.944 -14.112,5.832 -3.888,3.888 -5.832,8.64 -5.832,14.112 v 33.12 c 0,1.008 0.288,1.8 1.008,2.448 0.648,0.72 1.44,1.008 2.448,1.008 0.936,0 1.728,-0.288 2.376,-1.008 0.72,-0.648 1.08,-1.44 1.08,-2.448 v -18 c 3.672,3.24 8.064,4.896 13.032,4.896 5.544,0 10.224,-1.944 14.112,-5.832 3.888,-3.96 5.904,-8.64 5.904,-14.184 0,-5.472 -2.016,-10.224 -5.904,-14.112 z m -14.112,27.216 c -3.6,0 -6.696,-1.296 -9.216,-3.816 -2.592,-2.592 -3.816,-5.688 -3.816,-9.288 0,-2.304 0.576,-4.536 1.728,-6.552 1.152,-2.016 2.736,-3.6 4.752,-4.752 2.016,-1.152 4.176,-1.728 6.552,-1.728 3.6,0 6.696,1.296 9.216,3.816 2.592,2.592 3.888,5.616 3.888,9.216 0,3.6 -1.296,6.696 -3.888,9.288 -2.52,2.52 -5.616,3.816 -9.216,3.816 z" stroke-width="0" stroke-linejoin="miter" stroke-miterlimit="2" fill="#2d5e9a" stroke="#2d5e9a" transform="translate(0 292.51) translate(698.5653125000002 76.532) scale(0.75) translate(-712.26125 39.6)"></path>
        <path id="path55278" style="font-style:normal;font-weight:700;font-size:72px;line-height:1;font-family:'Comfortaa Bold Alt2';font-variant-ligatures:none;text-align:center;text-anchor:middle" d="m 796.94225,-33.768 c -3.888,-3.888 -8.568,-5.832 -14.112,-5.832 -5.544,0 -10.224,1.944 -14.112,5.832 -3.888,3.888 -5.832,8.64 -5.832,14.112 v 33.12 c 0,1.008 0.288,1.8 1.008,2.448 0.648,0.72 1.44,1.008 2.448,1.008 0.936,0 1.728,-0.288 2.376,-1.008 0.72,-0.648 1.08,-1.44 1.08,-2.448 v -18 c 3.672,3.24 8.064,4.896 13.032,4.896 5.544,0 10.224,-1.944 14.112,-5.832 3.888,-3.96 5.904,-8.64 5.904,-14.184 0,-5.472 -2.016,-10.224 -5.904,-14.112 z m -14.112,27.216 c -3.6,0 -6.696,-1.296 -9.216,-3.816 -2.592,-2.592 -3.816,-5.688 -3.816,-9.288 0,-2.304 0.576,-4.536 1.728,-6.552 1.152,-2.016 2.736,-3.6 4.752,-4.752 2.016,-1.152 4.176,-1.728 6.552,-1.728 3.6,0 6.696,1.296 9.216,3.816 2.592,2.592 3.888,5.616 3.888,9.216 0,3.6 -1.296,6.696 -3.888,9.288 -2.52,2.52 -5.616,3.816 -9.216,3.816 z" stroke-width="0" stroke-linejoin="miter" stroke-miterlimit="2" fill="#2b5994" stroke="#2b5994" transform="translate(0 292.51) translate(744.0340625000002 76.532) scale(0.75) translate(-762.88625 39.6)"></path>
</svg>