<svg id="Layer_1" data-name="Layer 1" xmlns="http://www.w3.org/2000/svg" viewBox="0 0 64 64">
    <defs>
        <style>.cls-1{fill:#1d1d1b;}.cls-2{fill:#fab900;}.cls-3{fill:#fff;}</style>
    </defs>
    <title>moon-last-quarter</title>
    <g id="moon-last-quarter"> 
        <path class="cls-1" d="M39.49,5.77c.61-.14,3.56,2.81,4,4.47s-.75,5.25.06,7.31,2.47,2.28,1.72,6-1.81,5.63-.94,7.66,2.19,3,1.78,5.28-2.09,6-1.22,8,2.94,3.66,2.5,7.25-1,5.16-3.44,5.94A16.6,16.6,0,0,1,31.46,56c-4.31-2.75-8.34-5.62-11.19-11.78s-3.91-7.87-3.66-14.31,4.91-12.78,8-15.94A32.69,32.69,0,0,1,39.49,5.77Z"/>
        <path class="cls-2" d="M38.83,7.52c.44,0,3.28,2,3.19,4.22s-1.72,5.5-.5,7.31S43.68,21.74,43.3,24s-2.09,5.22-.91,8.12,2.19,3.31,1.72,5.34-2.87,5.5-1.34,7.88,2.63,3.44,2.5,5.84-.22,4.09-1.44,4.44a21.67,21.67,0,0,1-4.56.5,2.74,2.74,0,0,1-1.5-.31s0-1.62-1.09-2.19A16,16,0,0,1,34,51.36c-1.09-.87-2.09-1.81-3.53-1.66s-2.56,1-2.91.91-3.66-3.75-6.12-8.78a23.71,23.71,0,0,1-2.62-14.12c.44-5.66,5.44-11.16,8.19-13.59S36.68,7.74,38.83,7.52Z"/>
        <path class="cls-1" d="M34.58,20.36c1.43-.3,4.53-.78,6.19,3.22a5.45,5.45,0,0,1-3.31,7.66C35,31.9,31.3,32,30,27.43S31.86,20.93,34.58,20.36Z"/>
        <path class="cls-3" d="M35.46,22.08a3.44,3.44,0,0,1,3.94,3.06,3.87,3.87,0,0,1-2.56,4.5c-2.09.66-3.94,0-4.66-2.59S32.33,22.52,35.46,22.08Z"/>
        <path class="cls-1" d="M25.33,19.83c.22-.05.87.44.75.63a15.73,15.73,0,0,0-2.53,3.75c-1,2.13-.91,3.19-1.19,3.31s-1.19.19-1.16-.06a19.46,19.46,0,0,1,1.47-4C23.49,21.9,24.8,20,25.33,19.83Z"/>
        <path class="cls-1" d="M25.58,31.86c1.54,0,3.47.75,3.34,3.34s-1.84,4-4.12,3.41a3.28,3.28,0,0,1-2.5-4A3.22,3.22,0,0,1,25.58,31.86Z"/>
        <path class="cls-3" d="M25.77,33.55a1.89,1.89,0,0,1,1.47,2.75c-.59,1.31-2.44,2-3.44.81S23.11,33.55,25.77,33.55Z"/>
        <path class="cls-1" d="M30.68,40.93c.31,0,1.88,4,1.78,4.22s-.19.38-.31.28a32,32,0,0,1-2.28-4.16A2.85,2.85,0,0,1,30.68,40.93Z"/>
        <path class="cls-1" d="M28.33,41.86c.11.23,2.41,4.44,2.28,4.53a.45.45,0,0,1-.31.13c-.12,0-2.78-4.28-2.56-4.47S28.3,41.8,28.33,41.86Z"/>
        <path class="cls-1" d="M25.8,42.8a24.88,24.88,0,0,1,2.84,4.94c-.12.22-.69.38-.69.38a51.34,51.34,0,0,1-2.84-4.81A1.92,1.92,0,0,1,25.8,42.8Z"/>
        <path class="cls-3" d="M28.61,51.52a2.85,2.85,0,0,1,2.88-.59,7.63,7.63,0,0,1,2.78,2.16,4.78,4.78,0,0,0,1.84,1.53c.41.25.88.84.69,1.06s-1.84-.31-4.16-1.59A27.81,27.81,0,0,1,28.61,51.52Z"/>
        </g>
</svg>